STARTFONT 2.1
FONT -FontForge-Mando AF-Regular-R-Normal--24-240-75-75-P-106-ISO10646-1
SIZE 24 75 75
FONTBOUNDINGBOX 13 26 0 0
COMMENT "Generated by fontforge, http://fontforge.sourceforge.net"
COMMENT "CC0 - public domain"
STARTPROPERTIES 39
FOUNDRY "FontForge"
FAMILY_NAME "Mando AF"
WEIGHT_NAME "Regular"
SLANT "R"
SETWIDTH_NAME "Normal"
ADD_STYLE_NAME ""
PIXEL_SIZE 24
POINT_SIZE 240
RESOLUTION_X 75
RESOLUTION_Y 75
SPACING "P"
AVERAGE_WIDTH 106
CHARSET_REGISTRY "ISO10646"
CHARSET_ENCODING "1"
FONTNAME_REGISTRY ""
CHARSET_COLLECTIONS "ISO10646-1"
FONT_NAME "MandoAF-Regular"
FACE_NAME "Mando AF Regular"
COPYRIGHT "CC0 - public domain"
FONT_VERSION "001.000"
FONT_ASCENT 19
FONT_DESCENT 5
UNDERLINE_POSITION -2
UNDERLINE_THICKNESS 2
X_HEIGHT 23
CAP_HEIGHT 23
RAW_ASCENT 800
RAW_DESCENT 200
NORM_SPACE 6
RELATIVE_WEIGHT 40
RELATIVE_SETWIDTH 50
SUPERSCRIPT_X 0
SUPERSCRIPT_Y 11
SUPERSCRIPT_SIZE 16
SUBSCRIPT_X 0
SUBSCRIPT_Y 3
SUBSCRIPT_SIZE 16
AVG_LOWERCASE_WIDTH 109
AVG_UPPERCASE_WIDTH 109
ENDPROPERTIES
CHARS 78
STARTCHAR space
ENCODING 32
SWIDTH 250 0
DWIDTH 6 0
BBX 1 1 0 0
BITMAP
00
ENDCHAR
STARTCHAR exclam
ENCODING 33
SWIDTH 235 0
DWIDTH 6 0
BBX 3 18 1 3
BITMAP
80
80
80
80
C0
E0
E0
E0
E0
E0
C0
C0
C0
C0
C0
80
80
80
ENDCHAR
STARTCHAR quotedbl
ENCODING 34
SWIDTH 374 0
DWIDTH 9 0
BBX 7 6 1 20
BITMAP
22
64
CC
CC
CC
88
ENDCHAR
STARTCHAR numbersign
ENCODING 35
SWIDTH 591 0
DWIDTH 14 0
BBX 12 22 1 1
BITMAP
1880
1B80
1F80
1F80
3D80
F980
3980
1980
1980
1980
1980
1980
1980
1980
1980
19C0
19F0
1BC0
1F80
1F80
1D80
1180
ENDCHAR
STARTCHAR dollar
ENCODING 36
SWIDTH 529 0
DWIDTH 13 0
BBX 11 24 1 0
BITMAP
0400
2600
2600
2600
2600
2600
6600
6600
6600
6600
6600
6300
E300
2180
2180
2180
20C0
00C0
00C0
00C0
00C0
20E0
3FC0
3F00
ENDCHAR
STARTCHAR ampersand
ENCODING 38
SWIDTH 591 0
DWIDTH 14 0
BBX 12 23 1 0
BITMAP
1F00
3800
38E0
39F0
3980
3980
3980
3980
1980
1980
1980
1980
1980
9180
5180
7180
7180
7180
7180
3180
3180
3180
3100
ENDCHAR
STARTCHAR quotesingle
ENCODING 39
SWIDTH 214 0
DWIDTH 5 0
BBX 3 6 1 20
BITMAP
20
60
C0
C0
C0
80
ENDCHAR
STARTCHAR comma
ENCODING 44
SWIDTH 263 0
DWIDTH 6 0
BBX 4 6 1 0
BITMAP
10
10
30
30
60
80
ENDCHAR
STARTCHAR hyphen
ENCODING 45
SWIDTH 504 0
DWIDTH 12 0
BBX 10 5 1 10
BITMAP
0380
0FC0
3F00
7000
8000
ENDCHAR
STARTCHAR period
ENCODING 46
SWIDTH 263 0
DWIDTH 6 0
BBX 4 6 1 0
BITMAP
80
C0
C0
E0
20
10
ENDCHAR
STARTCHAR zero
ENCODING 48
SWIDTH 490 0
DWIDTH 12 0
BBX 9 24 1 0
BITMAP
0300
6780
6E00
6E00
6E00
6E00
6E00
6E00
6E00
6C00
6C00
EC00
EC00
EC00
EC00
EC00
8C00
0C00
0C00
0C00
0C00
0C00
0C00
0800
ENDCHAR
STARTCHAR one
ENCODING 49
SWIDTH 602 0
DWIDTH 14 0
BBX 11 24 2 0
BITMAP
0200
1200
1200
1200
1300
1300
1300
1300
1300
1300
1300
3300
3300
3300
3300
3300
3300
3300
3B00
3B00
3B80
3B80
FBE0
E0C0
ENDCHAR
STARTCHAR two
ENCODING 50
SWIDTH 370 0
DWIDTH 9 0
BBX 7 24 1 0
BITMAP
80
46
4E
4E
4C
CC
CC
CC
CC
CC
CC
CC
CC
CC
CC
CC
EC
EC
EC
E8
E0
E0
F8
30
ENDCHAR
STARTCHAR three
ENCODING 51
SWIDTH 602 0
DWIDTH 14 0
BBX 12 24 1 0
BITMAP
2060
F9F0
19C0
1980
1980
1980
1980
1980
1980
1980
1980
1980
1980
1980
0980
0980
0980
0980
0980
0980
0900
0900
0900
0900
ENDCHAR
STARTCHAR four
ENCODING 52
SWIDTH 370 0
DWIDTH 9 0
BBX 7 24 1 0
BITMAP
30
78
E0
E0
E8
EC
EC
EC
CC
CC
CC
CC
CC
CC
CC
CC
CC
CC
CC
CC
4E
4E
46
C2
ENDCHAR
STARTCHAR five
ENCODING 53
SWIDTH 576 0
DWIDTH 14 0
BBX 10 24 2 0
BITMAP
4180
F3C0
3700
3700
3700
3700
3700
3700
3700
3700
3700
3700
3700
3600
3200
3200
3200
3200
1200
1200
1200
1200
F3C0
E180
ENDCHAR
STARTCHAR six
ENCODING 54
SWIDTH 321 0
DWIDTH 8 0
BBX 5 24 1 0
BITMAP
30
78
E0
E0
E0
E0
E0
E0
E0
C0
C0
C0
C0
C0
C0
C0
C0
C0
C0
C0
C0
40
78
30
ENDCHAR
STARTCHAR seven
ENCODING 55
SWIDTH 602 0
DWIDTH 14 0
BBX 11 24 2 0
BITMAP
00C0
03E0
1380
1300
1300
1300
1300
1300
1300
1300
1300
1300
3300
3300
3300
3300
3300
3300
3300
3200
3200
3200
F200
E000
ENDCHAR
STARTCHAR eight
ENCODING 56
SWIDTH 321 0
DWIDTH 8 0
BBX 6 23 1 0
BITMAP
40
40
40
40
40
40
40
40
C0
C0
C0
C0
E0
E0
E0
E0
E0
E0
E0
E0
E0
E0
7C
ENDCHAR
STARTCHAR nine
ENCODING 57
SWIDTH 482 0
DWIDTH 12 0
BBX 9 24 1 0
BITMAP
0300
4780
4E00
4E00
4E00
4E00
4E00
4E00
CE00
CC00
CC00
CC00
CC00
CC00
EC00
EC00
EC00
EC00
EC00
E400
E000
E000
F800
3000
ENDCHAR
STARTCHAR colon
ENCODING 58
SWIDTH 263 0
DWIDTH 6 0
BBX 4 12 1 7
BITMAP
10
10
30
30
60
80
10
10
30
30
60
80
ENDCHAR
STARTCHAR semicolon
ENCODING 59
SWIDTH 263 0
DWIDTH 6 0
BBX 4 19 1 0
BITMAP
10
10
30
30
60
80
10
10
30
30
60
C0
10
10
30
30
60
40
80
ENDCHAR
STARTCHAR question
ENCODING 63
SWIDTH 474 0
DWIDTH 11 0
BBX 9 24 1 0
BITMAP
7E00
FF00
C380
8180
0180
0180
0180
0380
0300
0300
0600
0600
0C00
0C00
0C00
0C00
0800
0800
0800
0800
0800
0800
0800
0800
ENDCHAR
STARTCHAR at
ENCODING 64
SWIDTH 495 0
DWIDTH 12 0
BBX 10 24 1 0
BITMAP
0400
2400
2400
2400
2400
2400
6400
6400
6400
6C00
6C00
6C00
EC00
2C00
3800
3800
3800
3800
3000
3000
7000
70C0
3FC0
1E00
ENDCHAR
STARTCHAR A
ENCODING 65
SWIDTH 405 0
DWIDTH 10 0
BBX 8 23 1 0
BITMAP
24
26
26
26
26
66
66
66
66
66
66
E6
26
26
26
26
06
06
06
06
06
06
03
ENDCHAR
STARTCHAR B
ENCODING 66
SWIDTH 416 0
DWIDTH 10 0
BBX 8 24 1 0
BITMAP
0C
1E
38
38
38
38
38
3C
1F
18
18
18
18
18
90
70
70
70
70
30
30
30
30
10
ENDCHAR
STARTCHAR C
ENCODING 67
SWIDTH 412 0
DWIDTH 10 0
BBX 8 24 1 0
BITMAP
30
F8
E0
E0
E0
E0
E0
E0
C0
C0
C0
C0
C0
C0
C0
C0
C0
C0
C0
C0
C0
C3
7F
7C
ENDCHAR
STARTCHAR D
ENCODING 68
SWIDTH 471 0
DWIDTH 11 0
BBX 9 24 1 0
BITMAP
0200
4780
4E00
4C00
4C00
4C00
4C00
4C00
4C00
4C00
4C00
6C00
6C00
EC00
EC00
EC00
EC00
EC00
EC00
EC00
EC00
ED00
FF00
7F00
ENDCHAR
STARTCHAR E
ENCODING 69
SWIDTH 440 0
DWIDTH 11 0
BBX 7 24 2 0
BITMAP
0C
3E
F8
F8
38
38
38
30
30
30
30
30
30
30
30
30
30
30
30
30
30
30
30
20
ENDCHAR
STARTCHAR F
ENCODING 70
SWIDTH 543 0
DWIDTH 13 0
BBX 11 24 1 0
BITMAP
0F00
3FE0
3E60
3860
3800
3800
F800
7800
7800
7800
7800
3800
3800
3800
3000
1000
1000
1000
1000
1000
1000
1000
1000
1000
ENDCHAR
STARTCHAR G
ENCODING 71
SWIDTH 482 0
DWIDTH 12 0
BBX 9 24 1 0
BITMAP
0800
0C00
0C00
0C00
0C00
0C00
0C00
0C00
0C00
0C00
0C00
0C00
8C00
4600
6600
6600
6300
2300
2300
0380
0180
4180
7F00
7E00
ENDCHAR
STARTCHAR H
ENCODING 72
SWIDTH 458 0
DWIDTH 11 0
BBX 9 24 1 0
BITMAP
3000
F800
E000
E000
E000
E000
E000
F100
ED00
CD00
CD00
C500
C500
C500
C100
C100
C180
C180
C180
C180
C180
C180
C180
8080
ENDCHAR
STARTCHAR I
ENCODING 73
SWIDTH 457 0
DWIDTH 11 0
BBX 8 24 1 0
BITMAP
02
0E
0E
0E
0E
0E
0C
0C
0C
0C
0C
0C
0C
0C
0C
0C
0C
0F
1F
3C
3C
6C
CC
08
ENDCHAR
STARTCHAR J
ENCODING 74
SWIDTH 321 0
DWIDTH 8 0
BBX 5 24 1 0
BITMAP
30
F8
E0
E0
E0
E0
E0
E0
E0
E0
C0
C0
C0
C0
C0
C0
C0
C0
C0
C0
C0
40
40
80
ENDCHAR
STARTCHAR K
ENCODING 75
SWIDTH 457 0
DWIDTH 11 0
BBX 8 24 1 0
BITMAP
07
0F
1C
0C
0C
8C
4C
7C
3C
1C
0C
0C
0C
3C
FD
0E
0E
3E
FE
0C
0C
0C
08
08
ENDCHAR
STARTCHAR L
ENCODING 76
SWIDTH 436 0
DWIDTH 10 0
BBX 9 24 0 0
BITMAP
0400
0C80
1D80
0F80
0F00
1E00
7C00
1C00
0C00
0C00
0C00
0C00
0C00
3C00
FC00
0C00
0800
3800
F800
0800
0800
0800
0800
0800
ENDCHAR
STARTCHAR M
ENCODING 77
SWIDTH 479 0
DWIDTH 12 0
BBX 9 24 1 0
BITMAP
0300
0F80
0E00
0E00
0E00
0E00
0C00
8C00
6C00
6C00
6C00
2C00
2C00
0C00
0C00
0C00
0C00
0C00
0C00
0C00
0C00
0C00
0F00
0300
ENDCHAR
STARTCHAR N
ENCODING 78
SWIDTH 483 0
DWIDTH 12 0
BBX 9 24 1 0
BITMAP
0300
0F80
0E00
0E00
0E00
0E00
0E00
8C00
6C00
6C00
6C00
2C00
2C00
2C00
0C00
0C00
0C00
0C00
0C00
0C00
0C00
0C00
0C00
0800
ENDCHAR
STARTCHAR O
ENCODING 79
SWIDTH 531 0
DWIDTH 13 0
BBX 10 24 1 0
BITMAP
1000
3200
3200
3200
3200
F200
F200
7200
7200
7200
7300
7300
3300
3700
3F00
3700
3700
2700
0700
0700
0700
0700
03C0
0180
ENDCHAR
STARTCHAR P
ENCODING 80
SWIDTH 508 0
DWIDTH 12 0
BBX 9 24 1 0
BITMAP
0400
0600
2600
2600
2600
2600
2600
2600
6600
6600
6600
6600
6600
E600
A600
2600
2600
2600
2600
0600
0600
0600
0780
0380
ENDCHAR
STARTCHAR Q
ENCODING 81
SWIDTH 453 0
DWIDTH 11 0
BBX 8 24 1 0
BITMAP
06
0F
1C
1C
1C
9C
5C
7C
3C
1C
0C
0C
0C
0C
0F
0E
0E
0E
0C
0C
0C
0C
08
08
ENDCHAR
STARTCHAR R
ENCODING 82
SWIDTH 423 0
DWIDTH 10 0
BBX 8 24 1 0
BITMAP
06
1E
18
18
18
18
18
1C
1F
18
18
18
18
1C
DF
78
78
7E
3F
38
30
10
10
10
ENDCHAR
STARTCHAR S
ENCODING 83
SWIDTH 461 0
DWIDTH 11 0
BBX 9 23 1 0
BITMAP
1880
1B00
1F00
1E00
3C00
F800
3800
1800
1800
1800
1800
1800
1800
1800
1800
1800
1800
1800
1800
1800
1800
1800
1000
ENDCHAR
STARTCHAR T
ENCODING 84
SWIDTH 455 0
DWIDTH 11 0
BBX 9 24 1 0
BITMAP
0800
0800
0800
0800
0800
0800
0800
0800
0800
0800
1800
1800
1800
1800
3800
3000
3000
7000
6000
6000
E000
E180
7F80
3C00
ENDCHAR
STARTCHAR U
ENCODING 85
SWIDTH 540 0
DWIDTH 13 0
BBX 11 24 1 0
BITMAP
0600
0F00
3C00
FC00
1C00
1C00
1C00
1C00
1C00
1C00
1800
1800
1800
1E00
1F80
1800
1800
1800
1800
0800
0800
0860
0FE0
0FC0
ENDCHAR
STARTCHAR V
ENCODING 86
SWIDTH 510 0
DWIDTH 12 0
BBX 10 24 1 0
BITMAP
0200
0E00
0E00
0E00
0E00
0FC0
0F80
0E00
0E00
0FC0
0F00
0E00
0C00
0C00
0C00
0400
0400
0700
0F80
3C00
7C00
6400
C400
0800
ENDCHAR
STARTCHAR W
ENCODING 87
SWIDTH 474 0
DWIDTH 11 0
BBX 9 24 1 0
BITMAP
0800
0800
0800
0800
0800
0800
0800
0800
0C00
0C00
0C00
0C00
0600
0600
0300
0300
0380
0180
0180
0180
8180
C380
FF00
7E00
ENDCHAR
STARTCHAR X
ENCODING 88
SWIDTH 412 0
DWIDTH 10 0
BBX 9 24 2 0
BITMAP
0380
0780
0600
0600
0600
0600
0600
0600
0600
0600
0600
0600
0600
0600
0600
0600
0600
0600
0600
0600
0600
8600
FE00
7C00
ENDCHAR
STARTCHAR Y
ENCODING 89
SWIDTH 314 0
DWIDTH 8 0
BBX 5 24 1 0
BITMAP
30
F8
E0
C0
C0
C0
C0
C0
C0
C0
C0
C0
C0
F0
F8
C0
C0
C0
C0
C0
C0
C0
C0
40
ENDCHAR
STARTCHAR Z
ENCODING 90
SWIDTH 463 0
DWIDTH 11 0
BBX 8 24 2 0
BITMAP
E0
F0
30
30
30
30
30
30
30
30
30
30
10
10
10
10
30
F1
F2
16
16
12
14
10
ENDCHAR
STARTCHAR underscore
ENCODING 95
SWIDTH 474 0
DWIDTH 11 0
BBX 8 4 2 0
BITMAP
01
01
FF
FC
ENDCHAR
STARTCHAR a
ENCODING 97
SWIDTH 405 0
DWIDTH 10 0
BBX 8 23 1 0
BITMAP
24
26
26
26
26
66
66
66
66
66
66
E6
26
26
26
26
06
06
06
06
06
06
03
ENDCHAR
STARTCHAR b
ENCODING 98
SWIDTH 416 0
DWIDTH 10 0
BBX 8 24 1 0
BITMAP
04
1F
38
38
38
38
38
38
3F
1C
18
18
18
18
90
50
70
70
70
30
30
30
30
10
ENDCHAR
STARTCHAR c
ENCODING 99
SWIDTH 412 0
DWIDTH 10 0
BBX 8 24 1 0
BITMAP
30
F8
E0
E0
E0
E0
E0
E0
C0
C0
C0
C0
C0
C0
C0
C0
C0
C0
C0
C0
C0
C3
7F
7C
ENDCHAR
STARTCHAR d
ENCODING 100
SWIDTH 471 0
DWIDTH 11 0
BBX 9 24 1 0
BITMAP
0200
4780
4E00
4C00
4C00
4C00
4C00
4C00
4C00
4C00
4C00
6C00
6C00
EC00
EC00
EC00
EC00
EC00
EC00
EC00
EC00
ED00
FF00
7F00
ENDCHAR
STARTCHAR e
ENCODING 101
SWIDTH 440 0
DWIDTH 11 0
BBX 7 24 2 0
BITMAP
0C
3E
F8
F8
38
38
38
30
30
30
30
30
30
30
30
30
30
30
30
30
30
30
30
20
ENDCHAR
STARTCHAR f
ENCODING 102
SWIDTH 543 0
DWIDTH 13 0
BBX 11 24 1 0
BITMAP
0F00
3FE0
3E60
3860
3800
3800
F800
7800
7800
7800
7800
3800
3800
3800
3000
1000
1000
1000
1000
1000
1000
1000
1000
1000
ENDCHAR
STARTCHAR g
ENCODING 103
SWIDTH 482 0
DWIDTH 12 0
BBX 9 24 1 0
BITMAP
0800
0C00
0C00
0C00
0C00
0C00
0C00
0C00
0C00
0C00
0C00
0C00
8C00
4600
6600
6600
6300
2300
2300
0380
0180
4180
7F00
7E00
ENDCHAR
STARTCHAR h
ENCODING 104
SWIDTH 458 0
DWIDTH 11 0
BBX 9 24 1 0
BITMAP
3000
F800
E000
E000
E000
E000
E000
F100
ED00
CD00
CD00
C500
C500
C500
C100
C100
C180
C180
C180
C180
C180
C180
C180
8080
ENDCHAR
STARTCHAR i
ENCODING 105
SWIDTH 457 0
DWIDTH 11 0
BBX 8 24 1 0
BITMAP
02
0E
0E
0E
0E
0E
0C
0C
0C
0C
0C
0C
0C
0C
0C
0C
0C
0F
1F
3C
3C
6C
CC
08
ENDCHAR
STARTCHAR j
ENCODING 106
SWIDTH 321 0
DWIDTH 8 0
BBX 5 24 1 0
BITMAP
30
F8
E0
E0
E0
E0
E0
E0
E0
E0
C0
C0
C0
C0
C0
C0
C0
C0
C0
C0
C0
40
40
80
ENDCHAR
STARTCHAR k
ENCODING 107
SWIDTH 457 0
DWIDTH 11 0
BBX 8 24 1 0
BITMAP
07
0F
1C
0C
0C
8C
4C
7C
3C
1C
0C
0C
0C
3C
FD
0E
0E
3E
FE
0C
0C
0C
08
08
ENDCHAR
STARTCHAR l
ENCODING 108
SWIDTH 436 0
DWIDTH 10 0
BBX 9 24 0 0
BITMAP
0400
0C80
1D80
0F80
0F00
1E00
7C00
1C00
0C00
0C00
0C00
0C00
0C00
3C00
FC00
0C00
0800
3800
F800
0800
0800
0800
0800
0800
ENDCHAR
STARTCHAR m
ENCODING 109
SWIDTH 479 0
DWIDTH 12 0
BBX 9 24 1 0
BITMAP
0300
0F80
0E00
0E00
0E00
0E00
0C00
8C00
6C00
6C00
6C00
2C00
2C00
0C00
0C00
0C00
0C00
0C00
0C00
0C00
0C00
0C00
0F00
0300
ENDCHAR
STARTCHAR n
ENCODING 110
SWIDTH 483 0
DWIDTH 12 0
BBX 9 24 1 0
BITMAP
0300
0F80
0E00
0E00
0E00
0E00
0E00
8C00
6C00
6C00
6C00
2C00
2C00
2C00
0C00
0C00
0C00
0C00
0C00
0C00
0C00
0C00
0C00
0800
ENDCHAR
STARTCHAR o
ENCODING 111
SWIDTH 530 0
DWIDTH 13 0
BBX 10 24 1 0
BITMAP
1000
3200
3200
3200
3200
F200
F200
7200
7200
7200
7300
7300
3300
3700
3F00
3700
3700
2700
0700
0700
0700
0700
03C0
0180
ENDCHAR
STARTCHAR p
ENCODING 112
SWIDTH 508 0
DWIDTH 12 0
BBX 9 24 1 0
BITMAP
0400
0600
2600
2600
2600
2600
2600
2600
6600
6600
6600
6600
6600
E600
A600
2600
2600
2600
2600
0600
0600
0600
0780
0380
ENDCHAR
STARTCHAR q
ENCODING 113
SWIDTH 453 0
DWIDTH 11 0
BBX 8 24 1 0
BITMAP
06
0F
1C
1C
1C
9C
5C
7C
3C
1C
0C
0C
0C
0C
0F
0E
0E
0E
0C
0C
0C
0C
08
08
ENDCHAR
STARTCHAR r
ENCODING 114
SWIDTH 423 0
DWIDTH 10 0
BBX 8 24 1 0
BITMAP
06
1E
18
18
18
18
18
1C
1F
18
18
18
18
1C
DF
78
78
7E
3F
38
30
10
10
10
ENDCHAR
STARTCHAR s
ENCODING 115
SWIDTH 461 0
DWIDTH 11 0
BBX 9 23 1 0
BITMAP
1880
1B00
1F00
1E00
3C00
F800
3800
1800
1800
1800
1800
1800
1800
1800
1800
1800
1800
1800
1800
1800
1800
1800
1000
ENDCHAR
STARTCHAR t
ENCODING 116
SWIDTH 455 0
DWIDTH 11 0
BBX 9 24 1 0
BITMAP
0800
0800
0800
0800
0800
0800
0800
0800
0800
0800
1800
1800
1800
1800
3800
3000
3000
7000
6000
6000
E000
E180
7F80
3C00
ENDCHAR
STARTCHAR u
ENCODING 117
SWIDTH 540 0
DWIDTH 13 0
BBX 11 24 1 0
BITMAP
0600
0F00
3C00
FC00
1C00
1C00
1C00
1C00
1C00
1C00
1800
1800
1800
1E00
1F80
1800
1800
1800
1800
0800
0800
0860
0FE0
0FC0
ENDCHAR
STARTCHAR v
ENCODING 118
SWIDTH 510 0
DWIDTH 12 0
BBX 10 24 1 0
BITMAP
0200
0E00
0E00
0E00
0E00
0FC0
0F80
0E00
0E00
0FC0
0F00
0E00
0C00
0C00
0C00
0400
0400
0700
0F80
3C00
7C00
6400
C400
0800
ENDCHAR
STARTCHAR w
ENCODING 119
SWIDTH 474 0
DWIDTH 11 0
BBX 9 24 1 0
BITMAP
0800
0800
0800
0800
0800
0800
0800
0800
0C00
0C00
0C00
0C00
0600
0600
0300
0300
0380
0180
0180
0180
8180
C380
FF00
7E00
ENDCHAR
STARTCHAR x
ENCODING 120
SWIDTH 412 0
DWIDTH 10 0
BBX 9 24 2 0
BITMAP
0380
0780
0600
0600
0600
0600
0600
0600
0600
0600
0600
0600
0600
0600
0600
0600
0600
0600
0600
0600
0600
8600
FE00
7C00
ENDCHAR
STARTCHAR y
ENCODING 121
SWIDTH 313 0
DWIDTH 8 0
BBX 5 24 1 0
BITMAP
30
F8
C0
C0
C0
C0
C0
C0
C0
C0
C0
C0
C0
F0
F8
C0
C0
C0
C0
C0
C0
C0
C0
40
ENDCHAR
STARTCHAR z
ENCODING 122
SWIDTH 462 0
DWIDTH 11 0
BBX 8 24 2 0
BITMAP
E0
F0
30
30
30
30
30
30
30
30
30
30
10
10
10
10
30
F1
F2
16
16
12
14
10
ENDCHAR
STARTCHAR .notdef
ENCODING -1
SWIDTH 504 0
DWIDTH 12 0
BBX 10 16 1 5
BITMAP
0380
0FC0
3F00
7800
C000
0000
0380
0FC0
3E00
6000
0000
0180
0FC0
3F00
7800
C000
ENDCHAR
ENDFONT
